# xmcd
#
# Track frame offsets: 
#        150
#        19457
#        33000
#        48237
#        73250
#        85737
#        107477
#        120962
#        132067
#        142402
#        154225
#        168207
#        180595
#        193507
#        207207
#        232647
#        245620
#        258050
#        267125
#        279875
#        291090
#
# Disc length: 4024 seconds
#
# Revision: 0
# Processed by: cddbd v1.5.1PL0 Copyright (c) Steve Scherf et al.
# Submitted via: ExactAudioCopy v0.95a5
#
DISCID=190fb615
DTITLE=Various Artist - Slammin' Blues Guitar!
DYEAR=1900
DGENRE=Blues
TTITLE0=Albert King - Can't You See What You're Doing To
TTITLE1=Snooks Eaglin - Little Mae
TTITLE2=Smokey Wilson - How Many More Times
TTITLE3=Otis Rush - All Your Love
TTITLE4=Magic Sam - That's Why I'm Crying
TTITLE5=Fenton Robinson - Nothin' But A Fool
TTITLE6=Willie Williams - Wine Head Woman
TTITLE7=Wilbert Harrison Feat. Jimmy Spruill - Kansas City
TTITLE8=Albert Collins - Collins Shuffle
TTITLE9=Hop Willson - Dance To It (Chicken Stuff #2)
TTITLE10=Lowell Fulson - Too Many Drivers
TTITLE11=Jonny Guitar Watson - Too Tired
TTITLE12=Johnny Write Feat. Ike Turner - The World Is Yours
TTITLE13=Guitar Slim - Things That I Used To Do
TTITLE14=Robert Lockwood, Jr. - Annie's Boogie
TTITLE15=Charles Brown Fea. Johnny Moore - Travelin' Blues
TTITLE16=Elmore James - Blues Before Sunrise
TTITLE17=Bobby Bland Feat. Matt Murphy - Dry Up Baby
TTITLE18=B.B. King - Everyday I Have The Blues
TTITLE19=Pee Wee Crayton - Jack and The Beanstalk
TTITLE20=Roy Hawkins feat. T-Bone Walker - Highway 59
EXTD=
EXTT0=
EXTT1=
EXTT2=
EXTT3=
EXTT4=
EXTT5=
EXTT6=
EXTT7=
EXTT8=
EXTT9=
EXTT10=
EXTT11=
EXTT12=
EXTT13=
EXTT14=
EXTT15=
EXTT16=
EXTT17=
EXTT18=
EXTT19=
EXTT20=
PLAYORDER=
